<?xml version="1.0"?>
<!DOCTYPE svg PUBLIC "-//W3C//DTD SVG 1.1//EN" "http://www.w3.org/Graphics/SVG/1.1/DTD/svg11.dtd">
<!--Phoronix Test Suite v10.2.1 [ http://www.phoronix-test-suite.com/ ]-->
<svg xmlns="http://www.w3.org/2000/svg" xmlns:xlink="http://www.w3.org/1999/xlink" version="1.1" font-family="sans-serif, droid-sans, helvetica, verdana, tahoma" viewbox="0 0 554 393" width="554" height="393" preserveAspectRatio="xMinYMin meet"><rect x="0" y="0" width="554" height="393" fill="#FEFEFE"/><rect x="1" y="1" width="553" height="392" fill="#FEFEFE" stroke="#757575" stroke-width="1"/><path d="m74 22v9m-5-16v16m-5-28v28m-23-2h12.5c2.485281 0 4.5-2.014719 4.5-4.5s-2.014719-4.5-4.5-4.5h-8c-2.485281 0-4.5-2.014719-4.5-4.5s2.014719-4.5 4.5-4.5h12.5m-21 5h-11m11 13h-2c-4.970563 0-9-4.029437-9-9v-20m-24 40v-20c0-4.970563 4.0294373-9 9-9 4.970563 0 9 4.029437 9 9s-4.029437 9-9 9h-9" stroke="#000000" stroke-width="4" fill="none" transform="translate(215,28)"/><line x1="510" y1="201" x2="554" y2="201" stroke="#BABABA" stroke-width="352" stroke-dasharray="44,44"/><line x1="277" y1="73" x2="277" y2="377" stroke="#949494" stroke-width="554" stroke-dasharray="16,16"/><line x1="510" y1="201" x2="554" y2="201" stroke="#757575" stroke-width="352" stroke-dasharray="1,43"/><rect x="1" y="1" width="552" height="25" fill="#231f20"/><text x="5" y="19" font-size="17" fill="#FEFEFE" text-anchor="start">y</text><line x1="1" y1="25" x2="553" y2="25" stroke="#757575" stroke-width="1"/><g font-size="10" font-weight="bold" fill="#065695" text-anchor="end"><a xlink:href="https://openbenchmarking.org/test/pts/fio-1.15.0" target="_blank"><text x="508" y="85">fio: Rand Read - Linux AIO - No - Yes - 2MB - Default Test Directory</text></a><a xlink:href="https://openbenchmarking.org/test/pts/fio-1.15.0" target="_blank"><text x="508" y="101">fio: Rand Read - Linux AIO - No - Yes - 2MB - Default Test Directory</text></a><a xlink:href="https://openbenchmarking.org/test/pts/fio-1.15.0" target="_blank"><text x="508" y="117">fio: Rand Read - Linux AIO - No - Yes - 4KB - Default Test Directory</text></a><a xlink:href="https://openbenchmarking.org/test/pts/fio-1.15.0" target="_blank"><text x="508" y="133">fio: Rand Read - Linux AIO - No - Yes - 4KB - Default Test Directory</text></a><a xlink:href="https://openbenchmarking.org/test/pts/fio-1.15.0" target="_blank"><text x="508" y="149">fio: Rand Write - Linux AIO - No - Yes - 2MB - Default Test Directory</text></a><a xlink:href="https://openbenchmarking.org/test/pts/fio-1.15.0" target="_blank"><text x="508" y="165">fio: Rand Write - Linux AIO - No - Yes - 2MB - Default Test Directory</text></a><a xlink:href="https://openbenchmarking.org/test/pts/fio-1.15.0" target="_blank"><text x="508" y="181">fio: Rand Write - Linux AIO - No - Yes - 4KB - Default Test Directory</text></a><a xlink:href="https://openbenchmarking.org/test/pts/fio-1.15.0" target="_blank"><text x="508" y="197">fio: Rand Write - Linux AIO - No - Yes - 4KB - Default Test Directory</text></a><a xlink:href="https://openbenchmarking.org/test/pts/fio-1.15.0" target="_blank"><text x="508" y="213">fio: Seq Read - Linux AIO - No - Yes - 2MB - Default Test Directory</text></a><a xlink:href="https://openbenchmarking.org/test/pts/fio-1.15.0" target="_blank"><text x="508" y="229">fio: Seq Read - Linux AIO - No - Yes - 2MB - Default Test Directory</text></a><a xlink:href="https://openbenchmarking.org/test/pts/fio-1.15.0" target="_blank"><text x="508" y="245">fio: Seq Read - Linux AIO - No - Yes - 4KB - Default Test Directory</text></a><a xlink:href="https://openbenchmarking.org/test/pts/fio-1.15.0" target="_blank"><text x="508" y="261">fio: Seq Read - Linux AIO - No - Yes - 4KB - Default Test Directory</text></a><a xlink:href="https://openbenchmarking.org/test/pts/fio-1.15.0" target="_blank"><text x="508" y="277">fio: Seq Write - Linux AIO - No - Yes - 2MB - Default Test Directory</text></a><a xlink:href="https://openbenchmarking.org/test/pts/fio-1.15.0" target="_blank"><text x="508" y="293">fio: Seq Write - Linux AIO - No - Yes - 2MB - Default Test Directory</text></a><a xlink:href="https://openbenchmarking.org/test/pts/fio-1.15.0" target="_blank"><text x="508" y="309">fio: Seq Write - Linux AIO - No - Yes - 4KB - Default Test Directory</text></a><a xlink:href="https://openbenchmarking.org/test/pts/fio-1.15.0" target="_blank"><text x="508" y="325">fio: Seq Write - Linux AIO - No - Yes - 4KB - Default Test Directory</text></a><a xlink:href="https://openbenchmarking.org/test/pts/fs-mark-1.0.3" target="_blank"><text x="508" y="341">fs-mark: 1000 Files, 1MB Size</text></a><a xlink:href="https://openbenchmarking.org/test/pts/fs-mark-1.0.3" target="_blank"><text x="508" y="357">fs-mark: 5000 Files, 1MB Size, 4 Threads</text></a><a xlink:href="https://openbenchmarking.org/test/pts/fs-mark-1.0.3" target="_blank"><text x="508" y="373">fs-mark: 4000 Files, 32 Sub Dirs, 1MB Size</text></a></g><g font-size="10" fill="#065695" font-weight="bold" text-anchor="middle" dominant-baseline="text-before-edge"><text x="532" y="49">y</text></g><g fill="#BABABA"/><g text-anchor="middle" font-size="10" fill="#065695"><text x="532" y="86">6845</text><text x="532" y="102">3419</text><text x="532" y="118">846</text><text x="532" y="134">216667</text><text x="532" y="150">2260</text><text x="532" y="166">1126</text><text x="532" y="182">649</text><text x="532" y="198">166333</text><text x="532" y="214">6810</text><text x="532" y="230">3401</text><text x="532" y="246">863</text><text x="532" y="262">221000</text><text x="532" y="278">2265</text><text x="532" y="294">1129</text><text x="532" y="310">648</text><text x="532" y="326">166000</text><text x="532" y="342">1047.5</text><text x="532" y="358">2201.7</text><text x="532" y="374">1037.6</text></g><line x1="277" y1="73" x2="277" y2="377" stroke="#949494" stroke-width="554" stroke-dasharray="1,15"/><rect x="0" y="377" width="554" height="16" fill="#231f20"/><a xlink:href="https://www.phoronix-test-suite.com/" target="_blank"><text x="552" y="390" font-size="10" fill="#FFFFFF" text-anchor="end">Phoronix Test Suite 10.2.1</text></a></svg>
