<?xml version="1.0"?>
<!DOCTYPE svg PUBLIC "-//W3C//DTD SVG 1.1//EN" "http://www.w3.org/Graphics/SVG/1.1/DTD/svg11.dtd">
<!--Phoronix Test Suite v10.2.1 [ http://www.phoronix-test-suite.com/ ]-->
<svg xmlns="http://www.w3.org/2000/svg" xmlns:xlink="http://www.w3.org/1999/xlink" version="1.1" font-family="sans-serif, droid-sans, helvetica, verdana, tahoma" viewbox="0 0 501 478" width="501" height="478" preserveAspectRatio="xMinYMin meet"><rect x="0" y="0" width="501" height="478" fill="#FEFEFE"/><text x="250.5" y="19" font-size="17" fill="#231f20" text-anchor="middle" font-weight="bold">y</text><a xlink:href="https://www.phoronix-test-suite.com/" target="_blank"><text x="4" y="36" font-size="8" fill="#231f20" text-anchor="start" font-weight="bold">Phoronix Test Suite 10.2.1</text></a><a xlink:href="https://www.phoronix-test-suite.com/" target="_blank"><text x="497" y="36" font-size="8" fill="#231f20" text-anchor="end" font-weight="bold">Phoronix Test Suite 10.2.1</text></a><g fill="#949494"><rect x="0" y="55" width="501" height="16"/><rect x="0" y="87" width="501" height="16"/><rect x="0" y="119" width="501" height="16"/><rect x="0" y="151" width="501" height="16"/><rect x="0" y="183" width="501" height="16"/><rect x="0" y="215" width="501" height="16"/></g><g fill="none" stroke-width="1" stroke="#005a00"/><g font-size="10" fill="#065695" text-anchor="middle" font-weight="bold"><a xlink:href="http://openbenchmarking.org/s/AMD EPYC 7713P 64-Core @ 2.00GHz (64 Cores / 128 Threads)" target="_blank"><text x="250.5" y="52">AMD EPYC 7713P 64-Core @ 2.00GHz (64 Cores / 128 Threads)</text></a><a xlink:href="http://openbenchmarking.org/s/Dell 07PXPY (2.2.4 BIOS)" target="_blank"><text x="250.5" y="68">Dell 07PXPY (2.2.4 BIOS)</text></a><a xlink:href="http://openbenchmarking.org/s/504GB" target="_blank"><text x="250.5" y="84">504GB</text></a><a xlink:href="http://openbenchmarking.org/s/4 x 1600GB Dell Ent NVMe AGN MU AIC 1.6TB + 600GB AL15SEB060NY" target="_blank"><text x="250.5" y="100">4 x 1600GB Dell Ent NVMe AGN MU AIC 1.6TB + 600GB AL15SEB060NY</text></a><a xlink:href="http://openbenchmarking.org/s/mgag200drmfb" target="_blank"><text x="250.5" y="116">mgag200drmfb</text></a><a xlink:href="http://openbenchmarking.org/s/Ubuntu 20.04.1 LTS" target="_blank"><text x="250.5" y="132">Ubuntu 20.04.1 LTS</text></a><a xlink:href="http://openbenchmarking.org/s/5.10.89 (x86_64)" target="_blank"><text x="250.5" y="148">5.10.89 (x86_64)</text></a><a xlink:href="http://openbenchmarking.org/s/mgag200drmfb" target="_blank"><text x="250.5" y="164">mgag200drmfb</text></a><a xlink:href="http://openbenchmarking.org/s/GCC 9.3.0" target="_blank"><text x="250.5" y="180">GCC 9.3.0</text></a><a xlink:href="http://openbenchmarking.org/s/ext4" target="_blank"><text x="250.5" y="196">ext4</text></a><a xlink:href="http://openbenchmarking.org/s/1024x768" target="_blank"><text x="250.5" y="212">1024x768</text></a><a xlink:href="http://openbenchmarking.org/s/Docker" target="_blank"><text x="250.5" y="228">Docker</text></a></g><g font-size="7" fill="#065695" text-anchor="end"><text x="497" y="48">Processor</text><text x="497" y="64">Motherboard</text><text x="497" y="80">Memory</text><text x="497" y="96">Disk</text><text x="497" y="112">Graphics</text><text x="497" y="128">OS</text><text x="497" y="144">Kernel</text><text x="497" y="160">Display Driver</text><text x="497" y="176">Compiler</text><text x="497" y="192">File-System</text><text x="497" y="208">Screen Resolution</text><text x="497" y="224">System Layer</text></g><g stroke="#757575" stroke-width="1"><line x1="0" y1="39" x2="501" y2="39"/><line x1="0" y1="55" x2="501" y2="55"/><line x1="0" y1="71" x2="501" y2="71"/><line x1="0" y1="87" x2="501" y2="87"/><line x1="0" y1="103" x2="501" y2="103"/><line x1="0" y1="119" x2="501" y2="119"/><line x1="0" y1="135" x2="501" y2="135"/><line x1="0" y1="151" x2="501" y2="151"/><line x1="0" y1="167" x2="501" y2="167"/><line x1="0" y1="183" x2="501" y2="183"/><line x1="0" y1="199" x2="501" y2="199"/><line x1="0" y1="215" x2="501" y2="215"/></g><rect x="1" y="231" width="499" height="247" fill="#FEFEFE"/><text x="4" y="252" font-size="9" fill="#231f20" text-anchor="start">- Transparent Huge Pages: madvise</text><text x="4" y="264" font-size="9" fill="#231f20" text-anchor="start"><tspan x="4" y="264" dx="0" dy="0">- --build=x86_64-linux-gnu --disable-vtable-verify --disable-werror</tspan><tspan x="4" y="264" dx="5" dy="10"> --enable-checking=release --enable-clocale=gnu --enable-default-pie</tspan><tspan x="4" y="264" dx="5" dy="20"> --enable-gnu-unique-object</tspan><tspan x="4" y="264" dx="5" dy="30"> --enable-languages=c,ada,c++,go,brig,d,fortran,objc,obj-c++,gm2 --enable-libstdcxx-debug</tspan><tspan x="4" y="264" dx="5" dy="40"> --enable-libstdcxx-time=yes --enable-multiarch --enable-multilib --enable-nls</tspan><tspan x="4" y="264" dx="5" dy="50"> --enable-objc-gc=auto</tspan><tspan x="4" y="264" dx="5" dy="60"> --enable-offload-targets=nvptx-none=/build/gcc-9-HskZEa/gcc-9-9.3.0/debian/tmp-nvptx/usr,hsa</tspan><tspan x="4" y="264" dx="5" dy="70"> --enable-plugin --enable-shared --enable-threads=posix --host=x86_64-linux-gnu</tspan><tspan x="4" y="264" dx="5" dy="80"> --program-prefix=x86_64-linux-gnu- --target=x86_64-linux-gnu --with-abi=m64</tspan><tspan x="4" y="264" dx="5" dy="90"> --with-arch-32=i686 --with-default-libstdcxx-abi=new --with-gcc-major-version-only</tspan><tspan x="4" y="264" dx="5" dy="100"> --with-multilib-list=m32,m64,mx32 --with-target-system-zlib=auto --with-tune=generic</tspan><tspan x="4" y="264" dx="5" dy="110"> --without-cuda-driver -v </tspan></text><text x="4" y="396" font-size="9" fill="#231f20" text-anchor="start">- none / relatime,rw / Block Size: 4096</text><text x="4" y="408" font-size="9" fill="#231f20" text-anchor="start"><tspan x="4" y="408" dx="0" dy="0">- Scaling Governor: acpi-cpufreq performance (Boost: Enabled) - CPU Microcode: 0xa00111d </tspan></text><text x="4" y="419" font-size="9" fill="#231f20" text-anchor="start"><tspan x="4" y="419" dx="0" dy="0">- itlb_multihit: Not affected + l1tf: Not affected + mds: Not affected + meltdown: Not</tspan><tspan x="4" y="419" dx="5" dy="10"> affected + spec_store_bypass: Mitigation of SSB disabled via prctl and seccomp +</tspan><tspan x="4" y="419" dx="5" dy="20"> spectre_v1: Mitigation of usercopy/swapgs barriers and __user pointer sanitization +</tspan><tspan x="4" y="419" dx="5" dy="30"> spectre_v2: Mitigation of Full AMD retpoline IBPB: conditional IBRS_FW STIBP: always-on</tspan><tspan x="4" y="419" dx="5" dy="40"> RSB filling + srbds: Not affected + tsx_async_abort: Not affected </tspan></text></svg>
